<?xml version="1.0" encoding="iso-8859-1"?>
<!-- Generator: Adobe Illustrator 23.0.0, SVG Export Plug-In . SVG Version: 6.00 Build 0)  -->
<svg version="1.1" id="&#x56FE;&#x5C42;_1" xmlns="http://www.w3.org/2000/svg" xmlns:xlink="http://www.w3.org/1999/xlink" x="0px"
	 y="0px" viewBox="0 0 500 500" style="enable-background:new 0 0 500 500;" xml:space="preserve">
<g>
	
		<ellipse transform="matrix(0.947 -0.3213 0.3213 0.947 -67.2294 93.4618)" style="opacity:0.3;fill:#58569F;" cx="249.533" cy="250.406" rx="206.045" ry="136.967"/>
	
		<ellipse transform="matrix(0.947 -0.3213 0.3213 0.947 -67.2294 93.4618)" style="opacity:0.4;fill:#786C9E;" cx="249.533" cy="250.406" rx="177.37" ry="117.906"/>
	
		<ellipse transform="matrix(0.947 -0.3213 0.3213 0.947 -67.2294 93.4618)" style="opacity:0.5;fill:#8F72A4;" cx="249.533" cy="250.406" rx="151.973" ry="101.023"/>
	
		<ellipse transform="matrix(0.947 -0.3213 0.3213 0.947 -67.2294 93.4618)" style="opacity:0.6;fill:#AF8DA1;" cx="249.533" cy="250.406" rx="123.299" ry="81.962"/>
	
		<ellipse transform="matrix(0.947 -0.3213 0.3213 0.947 -67.2294 93.4618)" style="fill:#A981AF;" cx="249.533" cy="250.406" rx="95.444" ry="63.446"/>
	<g style="opacity:0.6;">
		
			<radialGradient id="SVGID_1_" cx="941.4186" cy="4320.7656" r="170.7226" gradientTransform="matrix(0.8971 -0.3044 0.2123 0.6257 -1490.9719 -2155.4678)" gradientUnits="userSpaceOnUse">
			<stop  offset="0.6656" style="stop-color:#F198BF"/>
			<stop  offset="0.999" style="stop-color:#FFDC80"/>
		</radialGradient>
		<path style="fill:url(#SVGID_1_);" d="M280.625,367.24c-43.035,14.603-82.992,16.282-115.551,4.857
			c-18.579-6.52-34.403-17.247-45.759-31.022c-10.289-12.481-16.53-27.146-17.573-41.293c-1.194-16.191,1.66-32.112,8.484-47.32
			c6.243-13.914,15.643-26.937,27.939-38.709c20.958-20.064,49.082-35.053,77.167-41.127c30.467-6.589,54.52-6.148,73.533,1.345
			c20.329,8.012,34.256,23.829,42.578,48.354c4.643,13.683-0.494,28.722-14.466,42.348c-15.518,15.134-40.107,26.558-62.643,29.105
			c-15.9,1.796-28.727-1.807-37.096-10.42c-6.195-6.377-7.744-13.23-7.807-13.519c-0.321-1.475,1.193-3.177,3.375-3.799
			c2.183-0.623,4.213,0.066,4.538,1.537l0,0c0.014,0.062,1.445,6.252,6.942,11.838c7.123,7.237,17.496,10.143,30.831,8.636
			c20.067-2.267,41.996-12.474,55.868-26.004c12.225-11.923,16.719-25.089,12.652-37.073
			c-15.13-44.587-49.421-59.463-107.917-46.813c-25.978,5.617-52.083,19.569-71.625,38.279
			c-17.208,16.474-37.139,44.004-34.366,81.604c0.988,13.397,6.93,27.322,16.731,39.211c10.812,13.115,25.837,23.314,43.451,29.495
			c30.622,10.746,68.301,9.132,108.963-4.665c50.893-17.269,93.435-44.523,119.79-76.741c25.496-31.168,34.098-64.363,24.221-93.471
			c-0.483-1.424,0.872-3.171,3.027-3.903c2.155-0.731,4.294-0.17,4.777,1.254c10.363,30.541,1.345,65.363-25.393,98.05
			C377.795,320.892,333.519,349.292,280.625,367.24z"/>
	</g>
	<g style="opacity:0.6;">
		
			<radialGradient id="SVGID_2_" cx="-5934.5068" cy="-5148.71" r="170.7226" gradientTransform="matrix(-0.8971 0.3044 -0.2123 -0.6257 -6190.6958 -1175.2639)" gradientUnits="userSpaceOnUse">
			<stop  offset="0.6656" style="stop-color:#F198BF"/>
			<stop  offset="0.999" style="stop-color:#FFDC80"/>
		</radialGradient>
		<path style="fill:url(#SVGID_2_);" d="M298.389,324.413c-5.486,1.862-11.022,3.405-16.56,4.602
			c-30.467,6.589-54.52,6.148-73.533-1.345c-20.329-8.012-34.256-23.829-42.578-48.354c-4.643-13.683,0.494-28.722,14.466-42.348
			c15.518-15.134,40.107-26.558,62.643-29.105c15.9-1.796,28.727,1.807,37.096,10.42c6.195,6.377,7.745,13.23,7.808,13.519
			c0.321,1.475-1.195,3.172-3.375,3.799c-2.183,0.623-4.213-0.066-4.538-1.537l0,0c-0.014-0.062-1.445-6.252-6.943-11.837
			c-7.123-7.237-17.496-10.143-30.831-8.636c-20.066,2.267-41.996,12.475-55.868,26.004c-12.225,11.923-16.719,25.089-12.652,37.073
			c15.13,44.587,49.421,59.463,107.917,46.813c25.976-5.617,52.083-19.569,71.625-38.279c17.208-16.474,37.139-44.004,34.366-81.604
			c-0.988-13.397-6.93-27.322-16.731-39.211c-10.812-13.115-25.837-23.314-43.451-29.495c-30.622-10.746-68.301-9.132-108.963,4.665
			c-50.893,17.269-93.435,44.523-119.79,76.741C73,247.467,64.398,280.663,74.275,309.771c0.483,1.424-0.872,3.171-3.027,3.903
			c-2.155,0.731-4.294,0.17-4.777-1.254c-10.363-30.541-1.345-65.363,25.394-98.05c27.501-33.619,71.777-62.019,124.672-79.967
			c43.035-14.603,82.992-16.282,115.551-4.857c18.579,6.52,34.403,17.247,45.759,31.022c10.289,12.481,16.53,27.146,17.573,41.293
			c1.194,16.191-1.66,32.112-8.484,47.32c-6.243,13.914-15.643,26.937-27.939,38.709
			C342.171,303.996,320.723,316.834,298.389,324.413z"/>
	</g>
	
		<radialGradient id="SVGID_3_" cx="731.0945" cy="4294.2656" r="60.3967" gradientTransform="matrix(0.947 -0.3213 0.2123 0.6257 -1354.5806 -2201.7485)" gradientUnits="userSpaceOnUse">
		<stop  offset="0.6656" style="stop-color:#FFFFF4"/>
		<stop  offset="0.999" style="stop-color:#FFFFF4;stop-opacity:0"/>
	</radialGradient>
	<path style="fill:url(#SVGID_3_);" d="M306.556,231.057c7.104,20.935-12.668,46.568-44.16,57.254
		c-31.493,10.686-62.781,2.378-69.885-18.556s12.668-46.568,44.16-57.254S299.452,210.123,306.556,231.057z"/>
</g>
</svg>
