<?xml version="1.0" encoding="UTF-8"?>
<svg width="349px" height="323px" viewBox="0 0 349 323" version="1.1" xmlns="http://www.w3.org/2000/svg" xmlns:xlink="http://www.w3.org/1999/xlink">
    <!-- Generator: Sketch 63.1 (92452) - https://sketch.com -->
    <title>即时消息</title>
    <desc>Created with Sketch.</desc>
    <defs>
        <linearGradient x1="79.9663456%" y1="39.4341074%" x2="50%" y2="100%" id="linearGradient-1">
            <stop stop-color="#59D0FC" offset="0%"></stop>
            <stop stop-color="#4B79FF" offset="100%"></stop>
        </linearGradient>
        <linearGradient x1="100%" y1="0%" x2="100%" y2="89.2065652%" id="linearGradient-2">
            <stop stop-color="#3297F9" stop-opacity="0" offset="0%"></stop>
            <stop stop-color="#4B79FF" offset="100%"></stop>
        </linearGradient>
        <linearGradient x1="0%" y1="31.6435991%" x2="100%" y2="57.4966986%" id="linearGradient-3">
            <stop stop-color="#59CBFD" offset="0%"></stop>
            <stop stop-color="#4B79FF" offset="100%"></stop>
        </linearGradient>
        <linearGradient x1="98.9529965%" y1="49.5564514%" x2="100%" y2="55.2074063%" id="linearGradient-4">
            <stop stop-color="#59CBFD" offset="0%"></stop>
            <stop stop-color="#4B79FF" offset="100%"></stop>
        </linearGradient>
        <linearGradient x1="50%" y1="0%" x2="50%" y2="96.4553421%" id="linearGradient-5">
            <stop stop-color="#2BE2E1" offset="0%"></stop>
            <stop stop-color="#68EDF2" offset="100%"></stop>
        </linearGradient>
        <linearGradient x1="0%" y1="0%" x2="88.6577684%" y2="100%" id="linearGradient-6">
            <stop stop-color="#59D0FC" offset="0%"></stop>
            <stop stop-color="#4B79FF" offset="100%"></stop>
        </linearGradient>
        <linearGradient x1="50%" y1="0%" x2="50%" y2="100%" id="linearGradient-7">
            <stop stop-color="#59D0FC" offset="0%"></stop>
            <stop stop-color="#4B79FF" offset="100%"></stop>
        </linearGradient>
        <linearGradient x1="50%" y1="0%" x2="50%" y2="100%" id="linearGradient-8">
            <stop stop-color="#59D0FC" offset="0%"></stop>
            <stop stop-color="#4B79FF" offset="100%"></stop>
        </linearGradient>
        <linearGradient x1="30.7195777%" y1="39.5421028%" x2="-11.848242%" y2="100%" id="linearGradient-9">
            <stop stop-color="#59D0FC" offset="0%"></stop>
            <stop stop-color="#4B79FF" offset="100%"></stop>
        </linearGradient>
        <linearGradient x1="1.49877331%" y1="-16.4090434%" x2="50%" y2="100%" id="linearGradient-10">
            <stop stop-color="#59D0FC" offset="0%"></stop>
            <stop stop-color="#4B79FF" offset="100%"></stop>
        </linearGradient>
    </defs>
    <g id="中昱购买官网" stroke="none" stroke-width="1" fill="none" fill-rule="evenodd">
        <g id="画板" transform="translate(-1693.000000, -1320.000000)">
            <g id="即时消息" transform="translate(1694.000000, 1320.000000)">
                <path d="M268.259355,185 L300,185 L300,144" id="路径-5复制" stroke="url(#linearGradient-1)" stroke-dasharray="7"></path>
                <path d="M67,0 L346,0 L346,266.092105 C335.253111,302.697368 290.631899,321 212.136364,321 C133.640829,321 85.2620409,302.697368 67,266.092105 L67,0 Z" id="矩形" fill="url(#linearGradient-2)" opacity="0.26453218"></path>
                <ellipse id="椭圆形" stroke="url(#linearGradient-3)" stroke-width="4" cx="206.5" cy="260" rx="139.5" ry="61"></ellipse>
                <path d="M209.5,301 C271.632034,301 322,282.643675 322,260 C322,237.356325 271.632034,219 209.5,219 C147.367966,219 97,237.356325 97,260 C97,282.643675 147.367966,301 209.5,301 Z" id="椭圆形复制-4" stroke="url(#linearGradient-4)" stroke-dasharray="5"></path>
                <circle id="椭圆形" stroke="#18C3E8" fill-opacity="0.153354458" fill="#37E5E6" cx="144" cy="107" r="18"></circle>
                <circle id="椭圆形复制-5" fill="url(#linearGradient-5)" cx="300" cy="143" r="5"></circle>
                <circle id="椭圆形复制-6" fill="#51EAED" cx="144" cy="107" r="4"></circle>
                <rect id="矩形" fill="url(#linearGradient-6)" opacity="0.702008929" x="6" y="144" width="58" height="58"></rect>
                <circle id="椭圆形复制-9" fill="#51EAED" cx="35" cy="142" r="4"></circle>
                <path d="M34.6782117,137.600828 L34.6782117,107 L126,107" id="路径-5" stroke="url(#linearGradient-7)" stroke-dasharray="7"></path>
                <polyline id="路径-6" stroke="url(#linearGradient-8)" stroke-width="2" points="59 138 69 138 69 148"></polyline>
                <polyline id="路径-6复制-2" stroke="url(#linearGradient-8)" stroke-width="2" transform="translate(64.000000, 202.000000) scale(1, -1) translate(-64.000000, -202.000000) " points="59 197 69 197 69 207"></polyline>
                <polyline id="路径-6复制" stroke="url(#linearGradient-8)" stroke-width="2" transform="translate(5.000000, 143.000000) scale(-1, 1) translate(-5.000000, -143.000000) " points="0 138 10 138 10 148"></polyline>
                <polyline id="路径-6复制-3" stroke="url(#linearGradient-8)" stroke-width="2" transform="translate(5.000000, 202.000000) scale(-1, -1) translate(-5.000000, -202.000000) " points="0 197 10 197 10 207"></polyline>
                <g id="快速提问" transform="translate(144.000000, 148.000000)" fill-rule="nonzero">
                    <g id="编组">
                        <path d="M77.0765633,41.0380686 C74.9598901,36.1957379 72.0872683,31.8073706 68.3075008,28.3269427 C64.6789304,24.6951977 60.4455839,21.8200627 55.4563012,19.7015376 C50.6182033,17.5830125 45.4777235,16.5237561 39.8836523,16.6750731 C34.2895934,16.6750731 29.1491136,17.8856564 24.3110033,20.0041716 C19.4729054,22.1226967 15.2395588,25.1491488 11.6109885,28.7809061 C7.98241818,32.4126511 5.26098112,36.8010183 3.14430786,41.7946661 C1.02763459,46.7883262 0.12048891,51.9333034 0.12048891,57.6835735 C0.271679857,62.9798801 1.33001401,67.9735278 3.14430786,72.5132617 C5.10978397,77.052946 7.52883913,81.1386668 10.7038428,84.6190947 C11.6109873,85.6783548 12.2157523,86.8889369 12.5181342,88.2508397 C12.6693251,89.461423 12.2157523,90.5206818 11.0062247,91.1259747 C8.73836671,92.336558 5.86574491,93.2444998 2.69074122,93.8497927 C2.08597867,94.0011159 3.29550377,94.4550844 6.31931155,95.514342 C9.3431305,96.573602 14.0300313,97.3302206 20.379989,97.9355135 C23.2526108,98.2381587 25.8228508,98.389482 28.0907088,98.5408052 L34.2895314,98.5408052 C36.1038228,98.5408052 37.766917,98.389482 39.2788265,98.23816 C40.7907359,98.0868368 42.1514483,97.9355148 43.5121606,97.7841915 C48.6526404,97.1788999 53.4907383,95.8169959 57.8753316,93.3958243 C62.4110476,91.1259821 66.1908151,88.0995177 69.517016,84.4677728 C72.8432044,80.8360278 75.4134567,76.750307 77.2277357,72.0592933 C79.042027,67.3682796 79.9491727,62.3746319 79.9491727,57.078288 C80.4027443,51.328018 79.1932192,46.0317114 77.0765509,41.0380636 L77.0765633,41.0380686 Z" id="路径" fill="url(#linearGradient-9)" opacity="0.609235491"></path>
                        <path d="M110.489632,93.6985005 C108.977723,92.7905624 108.372959,91.5799754 108.524156,90.0667556 C108.826537,88.4022063 109.582491,87.0402911 110.792014,85.5270713 C114.722967,81.1387041 117.89797,76.1450439 120.317025,70.394749 C122.736081,64.4931495 124.096793,58.288916 124.247978,51.6306942 C124.399169,44.5185213 123.038453,37.8603492 120.46821,31.6561032 C117.89797,25.4518573 114.269388,20.0042337 109.733672,15.3132448 C105.197956,10.6222311 99.9062786,6.99048617 93.7074683,4.26666816 C87.5086457,1.54285015 81.0074535,0.180947346 74.0527072,0.0296303296 C67.097936,-0.121692893 60.4455839,1.24021363 54.397946,3.8127047 C48.1991234,6.38519328 42.9074588,10.0169506 38.220558,14.5566349 C33.5336449,19.0963192 29.9050745,24.3926258 27.1836375,30.5968593 C24.4622004,36.8011052 23.1014881,43.4593022 23.1014881,50.4201332 C22.9502972,57.0783426 24.1598223,63.4338932 26.4276766,69.3355051 C28.6955346,75.2371046 32.0217354,80.5333987 36.2550695,85.0730954 C40.4884037,89.6127797 45.326514,93.3958541 50.92061,96.2709891 C56.5146689,99.2974536 62.7134791,101.11332 69.2147085,101.718613 C70.8778027,102.021258 72.6920941,102.172581 74.6575702,102.323904 C76.6230463,102.475228 78.7397196,102.62655 81.0075776,102.62655 C83.2754356,102.777873 85.9968726,102.777873 88.8694944,102.62655 C91.7421162,102.475226 94.9171199,102.323904 98.5456903,101.869935 C106.558792,101.11332 112.455183,100.054056 116.386234,98.8434702 C120.317187,97.6328869 121.829096,96.8762746 121.073148,96.7249451 C116.990998,96.2709767 113.513613,95.2117129 110.489806,93.6984807 L110.489632,93.6985005 Z" id="路径" fill="url(#linearGradient-10)"></path>
                        <path d="M93.8586903,44.8211181 L77.3789328,44.8211181 L80.4027518,23.1819159 C80.5539427,22.5766242 80.1003711,21.9713326 79.4956073,21.6686836 C78.8908448,21.2147152 78.134895,21.2147152 77.6813159,21.6686836 L52.2812864,51.7818871 C52.1300954,51.9332103 51.9789057,52.2358555 51.8277148,52.3871787 C51.6765238,52.538502 51.6765238,52.8411472 51.6765238,53.1437936 C51.6765238,54.0517317 52.4324773,54.8083428 53.3396181,54.8083428 L69.9705603,54.8083428 L66.7955566,79.1713755 L66.7955566,79.4740207 C66.6443656,80.0793124 66.7955566,80.684604 67.2491282,81.13857 C67.8538907,81.7438616 68.9122224,81.7438616 69.5169862,81.13857 L95.0682005,47.5448269 C95.3705811,47.2421817 95.5217721,46.788212 95.5217721,46.3342436 C95.5217721,45.5776287 94.7658186,44.8210114 93.8586779,44.8210114 L93.8586903,44.8211181 Z" id="路径" fill="#B6E8FD"></path>
                    </g>
                </g>
                <g id="时间-" transform="translate(21.000000, 157.000000)" fill="#B6E8FD" fill-rule="nonzero">
                    <path d="M15,0 C6.72,0 0,6.72 0,15 C0,23.28 6.72,30 15,30 C23.28,30 30,23.28 30,15 C30,6.72 23.28,0 15,0 Z M19.8064688,22.3047509 L19.3387684,22.7914253 C19.0807269,23.0695249 18.6614093,23.0695249 18.4033677,22.7914253 L14.1295539,18.2896871 C13.9844055,18.1332561 14.0005331,17.820394 14.0005331,17.5075319 L14.0005331,8.69524913 C14.0005331,8.31286211 14.2908299,8 14.6617647,8 L15.3229963,8 C15.693931,8 15.9842278,8.31286211 15.9842278,8.69524913 L15.9842278,17.3163384 L19.8064688,21.3487833 C20.0645104,21.6095017 20.0645104,22.0440324 19.8064688,22.3047509 Z" id="形状"></path>
                </g>
            </g>
        </g>
    </g>
</svg>