<?xml version="1.0" standalone="no"?><!DOCTYPE svg PUBLIC "-//W3C//DTD SVG 1.1//EN" "http://www.w3.org/Graphics/SVG/1.1/DTD/svg11.dtd"><svg t="1629342749195" class="icon" viewBox="0 0 1024 1024" version="1.1" xmlns="http://www.w3.org/2000/svg" p-id="3715" xmlns:xlink="http://www.w3.org/1999/xlink" width="200" height="200"><defs><style type="text/css"></style></defs><path d="M752.51361 559.4c0-36.3 5.8-71.1 16.4-103.8-7.2 1.3-12.2 2.6-14.4 3.3-45.4 14.8-90.6 47-124 96.6-52.8 31.8-88.4 76.3-106 121.8-4.1 10.6-20.3 66.1 1.4 127.7 34.4 97.6 147.1 158.5 249.5 150.6 91.7-7 150.5-67.4 168.9-86.3 1.3-1.4 2.8-2.9 4.4-4.5-115.7-53-196.2-169.7-196.2-305.4z" fill="#D50000" p-id="3716"></path><path d="M20.61361 615.6c30-62.5 83.9-92.1 95-97 47.5-21 107.6-27.7 171.2-11.9 62.5-12.2 120.6-2.4 165.9 20.6 8.9 4.5 60.8 36.3 88.2 100.4 42.6 99.8 3.5 228.4-82.2 296.5-66.7 52.9-142.5 53.9-171.9 54.3-28.1 0.4-117.6 1.6-191.9-62.1C12.01361 845.3-26.98639 714.8 20.61361 615.6zM880.01361 467c-46-18.4-88.9-15.3-111.1-11.4-10.6 32.7-16.4 67.6-16.4 103.8 0 135.6 80.5 252.4 196.2 305.4 21.6-22.5 65.3-71.8 73.8-145.9C1034.31361 616.6 974.71361 505 880.01361 467z" fill="#FF1744" p-id="3717"></path><path d="M696.71361 612.4c-13.2 12.9-34.4 11.8-46.7-2-59.3-66.9-106.9-145.4-138.3-228.9-31.9-84.7-48.1-176.4-47.2-267.2 0.2-18 15.8-31.9 33.8-30.9l2.5 0.1c17.1 0.9 29.9 15.4 29.8 32.5-0.7 82.3 14 165.4 43 242.2 28.7 76.1 72 147.7 126.2 208.6 11.3 12.7 11.1 31.8-1.1 43.7l-2 1.9z" fill="#795548" p-id="3718"></path><path d="M586.71361 154.9c0-26.5-29.5-42-51.6-27.3-28.7 19-55.8 40.2-81.1 63.8-136.6 127.1-185.8 283-203.4 382.3-3.3 18.7 9.6 36.3 28.4 38.7 17.4 2.2 33.6-9.5 36.6-26.7 15.8-89.8 60.1-231.1 183.4-345.8 22.7-21.1 47-40.2 72.7-57.4 9.3-6.3 15-16.5 15-27.6z" fill="#795548" p-id="3719"></path><path d="M490.21361 64.6c54.6-7.1 125 10.8 190.4 52.9 28.8 18.6 53.7 40 73.9 62.7-26.8-24.1-60.1-45.8-98.3-62.5-68.7-30.1-138.4-37.8-191.8-25.5-1.2-3.4-2.3-6.7-3.4-10.2 9.3-6.7 19.1-12.5 29.2-17.4z" fill="#2E7D32" p-id="3720"></path><path d="M656.11361 117.7c38.2 16.7 71.6 38.4 98.3 62.5-20.2-22.7-45.1-44.1-73.9-62.7-65.4-42.2-135.8-60-190.4-52.9 70.4-33.9 157.4-22.9 217.3 34.2 25.2 24 42.5 53.2 51.8 84.3-74 53.6-178 48.5-246.5-16.8-22.4-21.4-38.6-46.9-48.4-74.2 53.4-12.2 123.1-4.5 191.8 25.6z" fill="#4CAF50" p-id="3721"></path></svg>